<svg xmlns="http://www.w3.org/2000/svg" viewBox="0 0 160 167" preserveAspectRatio="xMidYMid meet" id="aagddbfb"><defs id="SvgjsDefs1001"/><g id="SvgjsG1007" featurekey="root" fill="#092634"/><g id="SvgjsG1008" featurekey="symbol1" fill="#ffffff" transform="matrix(1.2249999999999999,0,0,1.2249999999999999,18.75,6.668911266326905)"><g id="SvgjsG1009" transform="matrix(1,0,0,1,0,0)"><path xmlns="http://www.w3.org/2000/svg" d="M86.667,56.668h-3.334v-6.667c0-5.521-4.479-10-10-10c-5.521,0-10,4.479-10,10v6.667H60c-1.833,0-3.333,1.497-3.333,3.333  v23.333c0,1.83,1.5,3.334,3.333,3.334h26.667c1.832,0,3.333-1.504,3.333-3.334V60.001C90,58.165,88.499,56.668,86.667,56.668z   M70,56.668v-6.667c0-1.843,1.491-3.333,3.333-3.333c1.843,0,3.334,1.49,3.334,3.333v6.667H70z"/><path xmlns="http://www.w3.org/2000/svg" d="M10,33.334c12.627,18.295,30.651,24.037,46.667,17.221v-0.554c0-9.192,7.477-16.667,16.666-16.667h3.334  C58.269,6.674,28.415,6.654,10,33.334z M43.333,45.001c-6.448,0-11.666-5.228-11.666-11.667c0-6.438,5.218-11.666,11.666-11.666  C49.782,21.668,55,26.896,55,33.334C55,39.773,49.782,45.001,43.333,45.001z"/><path xmlns="http://www.w3.org/2000/svg" d="M43.333,28.334c-2.764,0-5,2.24-5,5h5l-3.535,3.535c0.905,0.905,2.155,1.465,3.535,1.465c2.764,0,5-2.239,5-5  C48.333,30.574,46.097,28.334,43.333,28.334z"/></g></g><g id="SvgjsG1010" featurekey="text1" fill="#ffffff" transform="matrix(1.9383942152059024,0,0,1.9383942152059024,-1.9383942152059024,115.61711477528446)"><path d="M1 21.24 l0 -13.64 l5.2 0 c0.9 0 1.76 0.36 2.4 1 s0.98 1.48 0.98 2.4 l0 1.12 c0 0.92 -0.34 1.76 -0.98 2.4 s-1.5 1 -2.4 1 l-3 0 l0 5.72 l-2.2 0 z M3.2 13.32 l3 0 c0.32 0 0.62 -0.12 0.84 -0.34 c0.22 -0.24 0.36 -0.54 0.36 -0.86 l0 -1.12 c0 -0.32 -0.14 -0.62 -0.36 -0.86 c-0.22 -0.22 -0.52 -0.34 -0.84 -0.34 l-3 0 l0 3.52 z M14.98 21.24 c-0.9 0 -1.76 -0.34 -2.4 -0.98 s-1 -1.5 -1 -2.4 l0 -6.86 c0 -0.92 0.36 -1.76 1 -2.4 s1.5 -1 2.4 -1 l1.8 0 c0.9 0 1.76 0.36 2.4 1 s1 1.48 1 2.4 l0 6.86 c0 0.9 -0.36 1.76 -1 2.4 s-1.5 0.98 -2.4 0.98 l-1.8 0 z M14.98 9.799999999999999 c-0.32 0 -0.62 0.12 -0.84 0.34 c-0.24 0.24 -0.36 0.54 -0.36 0.86 l0 6.86 c0 0.32 0.12 0.62 0.36 0.84 c0.22 0.22 0.52 0.36 0.84 0.36 l1.8 0 c0.32 0 0.62 -0.14 0.84 -0.36 c0.24 -0.22 0.36 -0.52 0.36 -0.84 l0 -6.86 c0 -0.32 -0.12 -0.62 -0.36 -0.86 c-0.22 -0.22 -0.52 -0.34 -0.84 -0.34 l-1.8 0 z M25.56 21.24 c-0.9 0 -1.74 -0.34 -2.38 -0.98 c-0.66 -0.64 -1 -1.5 -1 -2.4 l0 -0.36 l2.2 0 l0 0.36 c0 0.32 0.12 0.62 0.34 0.84 c0.24 0.22 0.52 0.36 0.84 0.36 l1.8 0 c0.32 0 0.62 -0.14 0.86 -0.36 c0.22 -0.22 0.34 -0.52 0.34 -0.84 l0 -1.14 c0 -0.32 -0.12 -0.62 -0.34 -0.84 c-0.24 -0.24 -0.54 -0.36 -0.86 -0.36 l-1.8 0 c-0.9 0 -1.74 -0.36 -2.38 -1 c-0.66 -0.64 -1 -1.48 -1 -2.4 l0 -1.12 c0 -0.92 0.34 -1.76 1 -2.4 c0.64 -0.64 1.48 -1 2.38 -1 l1.8 0 c0.92 0 1.76 0.36 2.4 1 s1 1.48 1 2.4 l0 0.36 l-2.2 0 l0 -0.36 c0 -0.32 -0.12 -0.62 -0.34 -0.86 c-0.24 -0.22 -0.54 -0.34 -0.86 -0.34 l-1.8 0 c-0.32 0 -0.62 0.12 -0.84 0.34 c-0.22 0.24 -0.34 0.54 -0.34 0.86 l0 1.12 c0 0.32 0.12 0.62 0.34 0.86 c0.24 0.22 0.52 0.34 0.84 0.34 l1.8 0 c0.92 0 1.76 0.36 2.4 1 s1 1.5 1 2.4 l0 1.14 c0 0.9 -0.36 1.76 -1 2.4 s-1.48 0.98 -2.4 0.98 l-1.8 0 z M35.76 21.24 l0 -11.44 l-3.2 0 l0 -2.2 l8.58 0 l0 2.2 l-3.18 0 l0 11.44 l-2.2 0 z M42.94 21.2 l0 -13.78 l8.66 0 l0 2.22 l-6.46 0 l0 3.56 l4.18 0 l0 2.22 l-4.18 0 l0 3.56 l6.46 0 l0 2.22 l-8.66 0 z M57.019999999999996 21.2 c-0.92 0 -1.78 -0.36 -2.42 -1 c-0.66 -0.66 -1 -1.52 -1 -2.42 l0 -6.94 c0 -0.9 0.34 -1.76 1 -2.42 c0.64 -0.64 1.5 -1 2.42 -1 l1.82 0 c0.9 0 1.78 0.36 2.42 1 c0.64 0.66 1 1.52 1 2.42 l0 0.2 l-2.22 0 l0 -0.2 c0 -0.32 -0.12 -0.62 -0.34 -0.84 c-0.24 -0.24 -0.54 -0.36 -0.86 -0.36 l-1.82 0 c-0.32 0 -0.62 0.12 -0.86 0.36 c-0.22 0.22 -0.36 0.52 -0.36 0.84 l0 6.94 c0 0.32 0.14 0.62 0.36 0.84 c0.24 0.24 0.54 0.36 0.86 0.36 l1.82 0 c0.32 0 0.62 -0.12 0.86 -0.36 c0.22 -0.22 0.34 -0.52 0.34 -0.84 l0 -2.36 l-1.72 0 l0 -2.22 l3.94 0 l0 4.58 c0 0.9 -0.36 1.76 -1 2.42 c-0.66 0.64 -1.52 1 -2.42 1 l-1.82 0 z M70.66 21.24 l0 -4.52 c0 -0.32 -0.12 -0.62 -0.36 -0.84 c-0.22 -0.24 -0.52 -0.36 -0.84 -0.36 l-3 0 l0 5.72 l-2.2 0 l0 -13.64 l5.2 0 c0.9 0 1.76 0.36 2.4 1 s1 1.48 1 2.4 l0 1.12 c0 0.76 -0.24 1.48 -0.7 2.08 l-0.18 0.22 l0.18 0.24 c0.46 0.6 0.7 1.3 0.7 2.06 l0 4.52 l-2.2 0 z M66.46 13.32 l3 0 c0.32 0 0.62 -0.12 0.84 -0.34 c0.24 -0.24 0.36 -0.54 0.36 -0.86 l0 -1.12 c0 -0.32 -0.12 -0.62 -0.36 -0.86 c-0.22 -0.22 -0.52 -0.34 -0.84 -0.34 l-3 0 l0 3.52 z M78.25999999999999 21.24 c-0.9 0 -1.76 -0.34 -2.4 -0.98 s-1 -1.5 -1 -2.4 l0 -6.86 c0 -0.92 0.36 -1.76 1 -2.4 s1.5 -1 2.4 -1 l1.8 0 c0.9 0 1.76 0.36 2.4 1 s1 1.48 1 2.4 l0 6.86 c0 0.9 -0.36 1.76 -1 2.4 s-1.5 0.98 -2.4 0.98 l-1.8 0 z M78.25999999999999 9.799999999999999 c-0.32 0 -0.62 0.12 -0.84 0.34 c-0.24 0.24 -0.36 0.54 -0.36 0.86 l0 6.86 c0 0.32 0.12 0.62 0.36 0.84 c0.22 0.22 0.52 0.36 0.84 0.36 l1.8 0 c0.32 0 0.62 -0.14 0.84 -0.36 c0.24 -0.22 0.36 -0.52 0.36 -0.84 l0 -6.86 c0 -0.32 -0.12 -0.62 -0.36 -0.86 c-0.22 -0.22 -0.52 -0.34 -0.84 -0.34 l-1.8 0 z"/></g></svg>